<?xml version="1.0" encoding="UTF-8"?>
<svg width="428px" height="428px" viewBox="0 0 428 428" version="1.1" xmlns="http://www.w3.org/2000/svg" xmlns:xlink="http://www.w3.org/1999/xlink">
    <title>Group 15</title>
    <defs>
        <filter id="filter-1">
            <feColorMatrix in="SourceGraphic" type="matrix" values="0 0 0 0 0.980392 0 0 0 0 0.980392 0 0 0 0 0.980392 0 0 0 1.000000 0"></feColorMatrix>
        </filter>
    </defs>
    <g id="Icons---Page-1" stroke="none" stroke-width="1" fill="none" fill-rule="evenodd">
        <g id="Group-15">
            <rect id="Rectangle" stroke="#979797" fill="#80D7D0" x="22.5" y="22.5" width="405" height="405" rx="75"></rect>
            <rect id="Rectangle" stroke="#979797" fill="#18181A" x="0.5" y="0.5" width="405" height="405" rx="75"></rect>
            <g filter="url(#filter-1)" id="Group-3">
                <g transform="translate(69.000000, 29.000000)" id="Group-2" fill="#111111">
                    <path d="M108.94112,196.752577 C117.816698,196.752577 125.016722,203.960367 125.016722,212.850515 C125.016722,221.744718 117.816698,228.948454 108.94112,228.948454 C100.065542,228.948454 92.8695652,221.744718 92.8695652,212.850515 C92.8695652,203.960367 100.065542,196.752577 108.94112,196.752577" id="Path"></path>
                    <path d="M173.237458,212.850515 C173.237458,221.744718 166.043717,228.948454 157.165904,228.948454 C148.284042,228.948454 141.090301,221.744718 141.090301,212.850515 C141.090301,203.960367 148.284042,196.752577 157.165904,196.752577 C166.043717,196.752577 173.237458,203.960367 173.237458,212.850515 Z" id="Path"></path>
                    <path d="M113.892995,274.366378 C116.313207,282.203125 116.997628,290.71228 115.571064,299.405546 L115.558695,299.481592 C113.023038,314.866911 104.323469,327.798745 92.3048694,336.255868 C80.6202344,344.488855 65.7608751,348.507289 50.3614004,346.482063 C49.4213521,346.418024 48.506042,346.277939 47.627839,346.053803 C32.3603008,343.340159 19.5418357,335.043133 11.0649093,323.708267 C2.59210596,312.361394 -1.55565083,297.940658 0.534719644,282.999608 C0.596564924,282.099062 0.736747559,281.226534 0.959390567,280.374017 C1.19027961,279.149275 1.44178375,277.992575 1.718026,276.915922 C2.1798041,275.098822 2.65807426,273.521866 3.13222141,272.169047 C5.74621525,264.776569 14.0334828,260.842185 21.6486983,263.37572 C29.2597908,265.913257 33.3168412,273.958131 30.7069703,281.354611 C30.3730058,282.299183 30.1297477,283.067649 29.973073,283.66401 C29.746307,284.548546 29.5690172,285.361038 29.4494496,286.069467 L29.4453266,286.117496 C28.1919289,293.786142 30.2740534,301.254666 34.6526992,307.114215 C38.8952854,312.789653 45.2859644,316.940167 52.8681957,318.292987 C53.3423429,318.345018 53.812367,318.417062 54.2906372,318.517123 C61.9470829,319.509724 69.3520244,317.4885 75.214957,313.362 C81.0572744,309.239503 84.8504516,303.167825 86.2481549,295.807366 C86.3017542,295.343085 86.3800915,294.886808 86.474921,294.42653 C87.0356515,290.372073 86.6480878,286.33763 85.4895195,282.567346 C83.8114509,277.144061 81.5932669,273.393789 77.6227999,269.443396 C71.475379,263.319686 65.2413748,257.227996 59.1475532,251.036245 C34.4300562,225.925034 10.9247267,196.999512 4.98757982,158.604254 C-6.77951549,82.5261689 48.9925582,-1.16052504 133.497949,0.012185339 C218.007463,-1.16052504 273.779537,82.5261689 262.008318,158.604254 C256.075294,196.999512 232.569965,225.925034 207.852468,251.036245 C201.758646,257.227996 195.528765,263.319686 189.377221,269.443396 C185.402631,273.393789 183.18857,277.144061 181.514625,282.567346 C180.34781,286.33763 179.964369,290.372073 180.5251,294.42653 C180.624052,294.886808 180.70239,295.343085 180.755989,295.807366 C182.149569,303.167825 185.938624,309.239503 191.780941,313.362 C197.647997,317.4885 205.052938,319.509724 212.713507,318.517123 C213.187654,318.417062 213.657678,318.345018 214.131825,318.292987 C221.71818,316.940167 228.104736,312.789653 232.351445,307.114215 C236.730091,301.254666 238.812215,293.786142 237.554694,286.117496 L237.546448,286.069467 C237.426881,285.361038 237.253714,284.548546 237.026948,283.66401 C236.870273,283.067649 236.627015,282.299183 236.293051,281.354611 C233.68318,273.958131 237.736107,265.913257 245.351323,263.37572 C252.966538,260.842185 261.253806,264.776569 263.863677,272.169047 C264.341947,273.521866 264.820217,275.098822 265.281995,276.915922 C265.56236,277.992575 265.813864,279.149275 266.04063,280.374017 C266.263273,281.226534 266.407579,282.099062 266.465301,282.999608 C268.555672,297.940658 264.407915,312.361394 255.930989,323.708267 C247.458185,335.043133 234.63972,343.340159 219.372182,346.053803 C218.493979,346.277939 217.574546,346.418024 216.642744,346.482063 C201.239146,348.507289 186.379787,344.488855 174.699275,336.255868 C162.680675,327.798745 153.976983,314.866911 151.441326,299.481592 L151.428957,299.405546 C150.002393,290.71228 150.690937,282.203125 153.111149,274.366378 C157.823759,259.129148 169.590855,249.371237 181.436287,237.411992 C195.780269,222.927218 210.553045,208.462456 221.211048,187.857975 C245.487382,140.925545 225.165023,80.9251991 176.608232,58.8037989 C163.719676,52.7641403 149.346833,49.6502541 134.924513,49.4541353 L133.497949,49.4461304 L132.071385,49.4541353 C117.657311,49.6502541 103.276222,52.7641403 90.3917887,58.8037989 C41.8349977,80.9251991 21.5126387,140.925545 45.7930957,187.857975 C56.4469759,208.462456 71.2197519,222.927218 85.5637338,237.411992 C97.4132895,249.371237 109.176262,259.129148 113.892995,274.366378" id="Path"></path>
                </g>
            </g>
        </g>
    </g>
</svg>